<svg xmlns="http://www.w3.org/2000/svg" aria-hidden="true" style="position:absolute;width:0;height:0;overflow:hidden">
  <defs>
    <symbol id="icon-caret" viewBox="0 0 32 32">
      <path fill="#de4547" d="m26.707 12.707-10 10a.991.991 0 0 1-.708.293 1.002 1.002 0 0 1-.708-.293l-10-10a1 1 0 1 1 1.414-1.414l9.293 9.294 9.293-9.294a.991.991 0 0 1 .708-.293 1.01 1.01 0 0 1 .708.293.991.991 0 0 1 .293.708 1.01 1.01 0 0 1-.293.708z" style="fill:var(--color1, #de4547)"/>
    </symbol>
    <symbol id="icon-close" viewBox="0 0 32 32">
      <path fill="#fff" d="m8.532 25.333-1.867-1.867 7.467-7.467-7.467-7.467 1.867-1.867 7.467 7.467 7.467-7.467 1.867 1.867-7.467 7.467 7.467 7.467-1.867 1.867-7.467-7.467-7.467 7.467z" style="fill:var(--color2, #fff)"/>
    </symbol>
    <symbol id="icon-menu" viewBox="0 0 32 32">
      <path fill="#fff" d="M4 24v-2.667h24V24H4zm0-6.667v-2.667h24v2.667H4zm0-6.666V8h24v2.667H4z" style="fill:var(--color2, #fff)"/>
    </symbol>
    <symbol id="icon-target" viewBox="0 0 32 32">
      <path fill="#de4547" d="M29 15h-1.043A12.013 12.013 0 0 0 16.999 4.042V3a.997.997 0 0 0-1-1 .997.997 0 0 0-1 1v1.042A12.013 12.013 0 0 0 4.041 15H2.999a.997.997 0 0 0-1 1 .997.997 0 0 0 1 1h1.042a12.013 12.013 0 0 0 10.958 10.958v1.043a.997.997 0 0 0 1 1 .997.997 0 0 0 1-1v-1.043A12.013 12.013 0 0 0 27.957 17H29a.997.997 0 0 0 1-1 .997.997 0 0 0-1-1zM17 25.95V25a.997.997 0 0 0-1-1 .997.997 0 0 0-1 1v.95A10.022 10.022 0 0 1 6.05 17H7a.997.997 0 0 0 1-1 .997.997 0 0 0-1-1h-.95A10.022 10.022 0 0 1 15 6.05V7a.997.997 0 0 0 1 1 .997.997 0 0 0 1-1v-.95A10.022 10.022 0 0 1 25.95 15H25a.997.997 0 0 0-1 1 .997.997 0 0 0 1 1h.95A10.022 10.022 0 0 1 17 25.95zM16 11a4.995 4.995 0 0 0-4.62 3.087 4.993 4.993 0 0 0 3.643 6.817 4.996 4.996 0 0 0 5.133-2.126 5.003 5.003 0 0 0-.621-6.314A4.997 4.997 0 0 0 15.999 11zm0 8a3 3 0 0 1-.586-5.942 2.997 2.997 0 0 1 3.079 1.276 2.996 2.996 0 0 1-.373 3.788 3.004 3.004 0 0 1-2.121.879z" opacity=".6" style="fill:var(--color1, #de4547)"/>
    </symbol>
    <symbol id="icon-time" viewBox="0 0 32 32">
      <path fill="#de4547" d="M16 3c-2.571 0-5.085.762-7.222 2.191S4.974 8.65 3.99 11.025a13.004 13.004 0 0 0 2.818 14.167 13.002 13.002 0 0 0 20.001-1.97A13.003 13.003 0 0 0 29 16 13.018 13.018 0 0 0 16 3zm0 24a10.996 10.996 0 0 1-10.162-6.791A10.999 10.999 0 1 1 16.001 27zm8-11a.997.997 0 0 1-1 1h-7a.997.997 0 0 1-1-1V9a.997.997 0 0 1 1-1 .997.997 0 0 1 1 1v6h6a.997.997 0 0 1 1 1z" opacity=".6" style="fill:var(--color1, #de4547)"/>
    </symbol>
    <symbol id="icon-users" viewBox="0 0 32 32">
      <path fill="#de4547" d="M14.656 19.74a7.498 7.498 0 0 0 .313-12.265A7.498 7.498 0 0 0 3.32 11.326a7.504 7.504 0 0 0 3.022 8.414A11.978 11.978 0 0 0 .44 24.454a1.005 1.005 0 0 0 .003 1.121.998.998 0 0 0 1.402.257.998.998 0 0 0 .272-.285 9.996 9.996 0 0 1 13.153-3.339 10.001 10.001 0 0 1 3.614 3.339 1.003 1.003 0 0 0 1.376.28 1.002 1.002 0 0 0 .299-1.372 11.982 11.982 0 0 0-5.902-4.714zM5 13.5a5.505 5.505 0 0 1 3.395-5.082 5.505 5.505 0 0 1 5.994 1.192 5.498 5.498 0 0 1-.834 8.462 5.505 5.505 0 0 1-3.056.927 5.508 5.508 0 0 1-5.5-5.5zm26.268 12.337a.998.998 0 0 1-1.384-.291 9.988 9.988 0 0 0-8.384-4.547.997.997 0 0 1-1-1 .997.997 0 0 1 1-1 5.496 5.496 0 0 0 5.324-4.141 5.508 5.508 0 0 0-.885-4.601 5.5 5.5 0 0 0-6.481-1.868 1 1 0 1 1-.743-1.854 7.499 7.499 0 0 1 10.047 8.816 7.505 7.505 0 0 1-3.105 4.389 11.985 11.985 0 0 1 5.903 4.714.998.998 0 0 1-.291 1.384z" opacity=".6" style="fill:var(--color1, #de4547)"/>
    </symbol>
  </defs>
</svg>
